<svg width="24" height="35" viewBox="0 0 24 35" fill="none" xmlns="http://www.w3.org/2000/svg">
<path d="M0.474893 3.265C0.474893 1.77244 1.68316 0.635252 3.10464 0.635252L21.0864 0.635254C22.579 0.635254 23.7162 1.84352 23.7162 3.265C23.7162 4.75756 22.5079 5.89475 21.0864 5.89475L20.8732 5.89475C20.5178 5.89475 20.1625 5.61045 20.1625 5.18401C20.1625 4.82864 20.4468 4.47327 20.8732 4.47327L21.0864 4.47327C21.7972 4.47327 22.2947 3.90467 22.2947 3.265C22.2947 2.55426 21.7261 2.05674 21.0864 2.05674L3.10464 2.05674C2.3939 2.05674 1.89638 2.62533 1.89638 3.265C1.89638 3.97574 2.46497 4.47326 3.10464 4.47326L3.31786 4.47326C3.67324 4.47326 4.02861 4.75756 4.02861 5.18401C4.02861 5.53938 3.74431 5.89475 3.31786 5.89475L3.10464 5.89475C1.68316 5.89475 0.474893 4.75756 0.474893 3.265Z" fill="white"/>
<path d="M6.48056 3.47803L17.8524 3.47803C18.3039 3.47803 18.6698 3.84397 18.6698 4.29538C18.6698 4.74679 18.3039 5.11274 17.8524 5.11274L6.48056 5.11273C6.02915 5.11273 5.66321 4.74679 5.66321 4.29538C5.66321 3.84397 6.02915 3.47803 6.48056 3.47803Z" fill="white"/>
<path d="M4.91702 30.0601L19.4162 30.0601C19.8676 30.0601 20.2335 30.426 20.2335 30.8774C20.2335 31.3288 19.8676 31.6948 19.4162 31.6948L4.91702 31.6948C4.4656 31.6948 4.09966 31.3288 4.09966 30.8774C4.09966 30.426 4.4656 30.0601 4.91702 30.0601Z" fill="white"/>
<path d="M2.35835 33.1162L22.0459 33.1162C22.4973 33.1162 22.8633 33.4822 22.8633 33.9336C22.8633 34.385 22.4973 34.7509 22.0459 34.7509L2.35835 34.7509C1.90694 34.7509 1.541 34.385 1.541 33.9336C1.541 33.4822 1.90694 33.1162 2.35835 33.1162Z" fill="white"/>
<path d="M16.893 27.4658L16.893 7.6361C16.893 6.98843 17.418 6.46338 18.0657 6.46338C18.7134 6.46338 19.2384 6.98843 19.2384 7.63611L19.2384 27.4658C19.2384 28.1135 18.7134 28.6386 18.0657 28.6386C17.418 28.6386 16.893 28.1135 16.893 27.4658Z" fill="white"/>
<path d="M12.9838 27.4658L12.9838 7.6361C12.9838 6.98843 13.5088 6.46338 14.1565 6.46338C14.8042 6.46338 15.3292 6.98843 15.3292 7.63611L15.3292 27.4658C15.3292 28.1135 14.8042 28.6386 14.1565 28.6386C13.5088 28.6386 12.9838 28.1135 12.9838 27.4658Z" fill="white"/>
<path d="M9.07484 27.4658L9.07484 7.6361C9.07484 6.98843 9.59988 6.46338 10.2476 6.46338C10.8952 6.46338 11.4203 6.98843 11.4203 7.63611L11.4203 27.4658C11.4203 28.1135 10.8952 28.6386 10.2476 28.6386C9.59988 28.6386 9.07484 28.1135 9.07484 27.4658Z" fill="white"/>
<path d="M5.09473 27.4658L5.09473 7.6361C5.09473 6.98843 5.61978 6.46338 6.26746 6.46338C6.91514 6.46338 7.44019 6.98843 7.44019 7.63611L7.44018 27.4658C7.44018 28.1135 6.91514 28.6386 6.26746 28.6386C5.61978 28.6386 5.09473 28.1135 5.09473 27.4658Z" fill="white"/>
</svg>
