<?xml version="1.0" encoding="utf-8"?>
<!-- Generator: Adobe Illustrator 18.1.0, SVG Export Plug-In . SVG Version: 6.00 Build 0)  -->
<svg version="1.1" id="Layer_1" xmlns="http://www.w3.org/2000/svg" xmlns:xlink="http://www.w3.org/1999/xlink" x="0px" y="0px"
	 width="168.8px" height="200.7px" viewBox="129.3 -115.7 168.8 200.7" enable-background="new 129.3 -115.7 168.8 200.7"
	 xml:space="preserve">
<g id="XMLID_76_">
	<g id="XMLID_143_">
		<path id="XMLID_72_" fill="#FF277F" d="M210.7-112.4c0,0,3.6-1.7,8.2-1.4c4.6,0.3,8.4,6.3,11.6,5.4c3.1-0.9,12.8,0.2,14.6,7.1
			c-4.1-1.4-8.1-1.4-16.6,1.9c-8.5,3.3-18.5,1.9-18.5,1.9L210.7-112.4z"/>
		<path id="XMLID_73_" d="M215.2-95.7c-3.2,0-5.3-0.3-5.5-0.3c-0.8-0.1-1.3-0.8-1.3-1.6l0.8-14.9c0-0.6,0.4-1,0.9-1.3
			c0.2-0.1,4-1.9,8.9-1.5c2.7,0.2,5,1.9,7.1,3.4c1.5,1.1,3.1,2.3,4,2.1c2.6-0.8,7.7-0.3,11.4,1.8c2.7,1.5,4.4,3.7,5.1,6.4
			c0.1,0.5,0,1.1-0.4,1.5s-1,0.5-1.5,0.3c-3.6-1.3-7.2-1.3-15.6,1.9C224.1-96.1,218.9-95.7,215.2-95.7z M211.4-98.8
			c2.9,0.2,10.1,0.5,16.4-1.9c6.4-2.5,10.5-3.3,14.4-2.7c-0.6-0.7-1.4-1.4-2.4-1.9c-3.1-1.8-7.3-2-9-1.5c-2.3,0.7-4.5-0.9-6.7-2.5
			c-1.8-1.3-3.6-2.7-5.5-2.8c-2.9-0.2-5.4,0.5-6.6,0.9L211.4-98.8z"/>
	</g>
	<g id="XMLID_138_">
		<path id="XMLID_68_" fill="#6CC473" d="M252.6,40.2c0,0,13.5-26.2,21.8-26.9c8.4-0.7,12.1,8.3,7,12.8s-18.7,14-18.7,14L252.6,40.2
			z"/>
		<path id="XMLID_69_" d="M250.1,41.8l1.1-2.2c1.4-2.8,14.1-27,23-27.7c4.6-0.4,8.6,1.9,10.2,5.7c1.5,3.5,0.7,7.3-2.1,9.7
			c-5.1,4.5-18.3,13.7-18.9,14.1l-0.4,0.3L250.1,41.8z M275.4,14.8c-0.3,0-0.5,0-0.8,0c-5.1,0.4-14.1,14.1-19.5,23.9l7.1-0.1
			c2.2-1.6,13.7-9.6,18.2-13.6c2.1-1.9,2.1-4.5,1.3-6.3C280.9,16.8,278.8,14.8,275.4,14.8z"/>
	</g>
	<g id="XMLID_133_">
		<path id="XMLID_64_" fill="#6CC473" d="M169.3,33.1c0,0,10-22.7,17-23.7s10.6,6.3,6.6,10.4c-4,4-15,12.7-15,12.7L169.3,33.1z"/>
		<path id="XMLID_65_" d="M166.9,34.7l1-2.3C169,30,178.4,8.9,186,7.8c3.9-0.6,7.5,1.2,9.1,4.4c1.5,2.9,1,6.3-1.3,8.5
			c-4.1,4.1-14.7,12.5-15.1,12.8l-0.4,0.3L166.9,34.7z M187.5,10.7c-0.3,0-0.7,0-1.1,0.1c-4.1,0.6-10.8,12.1-14.8,20.6l5.5-0.4
			c1.9-1.5,11-8.8,14.5-12.3c1.6-1.6,1.4-3.7,0.7-5.1C191.7,12.1,190.1,10.7,187.5,10.7z"/>
	</g>
	<g id="XMLID_126_">
		<g id="XMLID_30_">
			<path id="XMLID_132_" fill="#6CC473" d="M217.5,83.6c-52.1,0-76.8-35.4-76.8-44.1c0-9.4,26.7-22.5,76.8-22.5
				c48.3,0,79.2,14.7,79.2,24.8C296.7,51.9,267.8,83.6,217.5,83.6z"/>
		</g>
		<g id="XMLID_27_">
			<path id="XMLID_128_" d="M217.5,18.5c49.2,0,77.7,15,77.7,23.3s-26.7,40.3-77.7,40.3s-75.3-34.3-75.3-42.6S168.3,18.5,217.5,18.5
				 M217.5,15.5c-28.4,0-46.7,4.1-57.1,7.5c-13.7,4.5-21.3,10.4-21.3,16.4c0,4,3.2,9.2,5.1,11.9c2.6,3.7,7.2,9.2,14.6,14.9
				c11.1,8.6,30.3,18.8,58.6,18.8c28.4,0,48.1-9.6,59.7-17.6c13.6-9.5,21-20.3,21-25.7c0-6-8.2-12.5-22.4-17.6
				C260.3,18.6,239.6,15.5,217.5,15.5L217.5,15.5z"/>
		</g>
	</g>
	<g id="XMLID_118_">
		<g id="XMLID_16_">
			<path id="XMLID_125_" fill="#B5EFA5" d="M158.1,51.3c-9.5,0-14.6-5.1-15.6-6.8c-1.1-1.9-2-4.5-2-4.6l-0.4-0.2v-0.2
				c0-9.4,27.2-22.5,77.3-22.5c48.3,0,79.7,14.7,79.7,24.8v0.1l-0.2,0.1c0,0.1-0.4,2-1.2,3.7c-0.9,2.1-6.9,5.1-14.1,5.1
				c-1.5,0-3.1-0.1-4.6-0.4c-0.2,0-25.5-4.2-56.4-4.2s-56.1,4.3-56.4,4.3C162.2,51,160.1,51.3,158.1,51.3L158.1,51.3z"/>
		</g>
		<g id="XMLID_12_">
			<g id="XMLID_13_">
				<path id="XMLID_121_" d="M217.5,18.5c49.2,0,77.7,15,77.7,23.3c0,0-0.3,1.8-1,3.3c-0.6,1.3-5.8,4.2-12.7,4.2
					c-1.4,0-2.8-0.1-4.3-0.4c0,0-25.3-4.3-56.6-4.3S164,49,164,49c-2.1,0.4-4.1,0.6-5.9,0.6c-8.9,0-13.5-4.7-14.3-6
					c-1-1.7-1.5-4.1-1.5-4.1C142.2,31.2,168.3,18.5,217.5,18.5 M217.5,15.5c-28.4,0-46.8,4.1-57.2,7.5C146.7,27.6,139,33.5,139,39.5
					v0.3l0.2,0.3c0.1,0.3,0.7,3,1.9,5.1c1.2,2.1,6.7,7.4,16.9,7.4c2.1,0,4.3-0.2,6.5-0.7c1.3-0.2,26-4.2,56.1-4.2
					c30.8,0,55.9,4.2,56.1,4.2c1.6,0.3,3.2,0.4,4.8,0.4c7.5,0,14.2-3.2,15.4-6c0.8-1.8,1.1-3.8,1.1-4l-0.1-0.3v-0.3
					c0-6-8-12.5-22.3-17.6C260.2,18.6,239.6,15.5,217.5,15.5L217.5,15.5z"/>
			</g>
		</g>
	</g>
	<g id="XMLID_113_">
		<path id="XMLID_60_" fill="#6CC473" d="M158.5,28.2c0,0,3.1,1.3,1.4,6.7s-8.2,7.1-8.2,7.1s-16.4-13.6-19.9-23.5
			s2.4-30.5,14.8-34.2C159-19.4,174.5-8.9,171.4,0c-3.1,8.9-9.7,15.1-15,17.4C151.3,20,158.5,28.2,158.5,28.2z"/>
		<path id="XMLID_61_" d="M151.3,43.7l-0.6-0.5c-0.7-0.6-16.7-14-20.3-24.1c-2.2-6.3-0.9-16.2,3.1-24.1c3.2-6.2,7.7-10.5,12.7-12
			c8.7-2.6,18.3,1.3,23.3,6.5c3.4,3.5,4.6,7.6,3.3,11.2c-3.4,9.8-10.6,16-15.8,18.3c-0.7,0.3-0.9,0.7-1,1.1c-0.4,1.7,1.7,5,3.3,7
			c1,0.6,3.6,2.8,1.9,8.4c-2,6.1-8.9,8.1-9.2,8.1L151.3,43.7z M152-14.8c-1.7,0-3.3,0.2-4.9,0.7c-4.2,1.3-8.1,5-10.9,10.5
			c-3.6,7.2-4.9,16.3-2.9,21.8c2.9,8.3,15.8,19.7,18.8,22.3c1.6-0.6,5.3-2.3,6.4-5.9c1.3-3.9-0.5-4.9-0.6-4.9l-0.3-0.1l-0.2-0.2
			c-0.5-0.6-5-5.8-4.2-9.8c0.2-1,0.8-2.3,2.7-3.2c5-2.3,11.3-8.3,14.2-16.6c1.2-3.4-1.2-6.5-2.7-8.1C164-11.9,158-14.8,152-14.8z"/>
	</g>
	<g id="XMLID_108_">
		<path id="XMLID_56_" fill="#DDDDDD" d="M204.9-113.9c-0.7,5.3-8.6,129.5-10.6,136.9c-2.1,7.4,7.3-2.9,7.3-2.9s10.7-130,9.2-132.7
			C209.2-115.2,204.9-113.9,204.9-113.9z"/>
		<path id="XMLID_57_" d="M194.6,27.2c-0.5,0-0.8-0.2-1-0.3c-1.7-0.9-1-3.4-0.8-4.3c1.4-5,5.7-67.7,8.3-105.1
			c1.2-17.3,2.1-29.9,2.3-31.5l0.1-1l0.9-0.3c2-0.6,5.9-0.9,7.6,2c0.4,0.8,1.2,2.1-3.8,68.2c-2.5,32.5-5.1,65-5.1,65.3v0.5l-0.3,0.4
			C198,26.3,195.8,27.2,194.6,27.2z M206.3-112.6c-0.3,3.7-1.1,15.7-2.2,30.3c-3.5,50.8-7,100.8-8.4,105.7c0,0.1,0,0.1,0,0.2
			c1.1-0.8,2.9-2.4,4.4-4.1c4.1-50.4,9.9-126,9.2-131.4C208.7-112.8,207.2-112.8,206.3-112.6z"/>
	</g>
	<g id="XMLID_103_">
		<path id="XMLID_52_" fill="#FFFFFF" d="M214.7-90.5c3.1,1.7,42,9.2,55.5,39.2c17.4,38.7,4,69,2.7,72.5
			c-1.3,3.5-12.7-16.5-26.2-16.5c-16.7,0-37.1,6.8-40.3,7.9c-3.2,1.1,33-33.8,29.8-66.4C233.1-85.8,214.7-90.5,214.7-90.5z"/>
		<path id="XMLID_53_" d="M272.4,23c-1.4,0-2.9-1.4-5.7-4.4c-4.8-5-12-12.4-19.9-12.4h-0.1c-15.4,0-34.3,5.9-39.7,7.7
			c-0.9,0.3-1.6-0.2-1.9-0.6c-0.8-1.1-0.3-1.8,3-5.9c8-9.9,29.2-36.4,26.7-61.2c-2.5-25.3-14.8-32.9-19-34.8
			c-0.9-0.3-1.4-0.5-1.8-0.7c-0.7-0.4-0.9-1.2-0.7-1.9c0.3-0.7,1-1.1,1.8-0.9c0.1,0,0.8,0.2,1.8,0.7c0.5,0.2,1.1,0.4,1.8,0.5
			c5.4,1.7,15.5,4.8,25.9,10.7c12.9,7.4,21.9,16.8,27,28.1c14.8,32.8,8.2,59.9,2.9,73.1l-0.2,0.5c-0.3,0.7-0.8,1.2-1.5,1.3
			C272.7,23,272.5,23,272.4,23z M246.6,3.3C246.7,3.3,246.7,3.3,246.6,3.3c9.2,0,17.3,8.3,22.2,13.3c1.1,1.1,2.3,2.3,3.1,3
			c5.1-12.9,11.1-38.9-3-70.4c-9.2-20.5-30.5-30.2-43.8-34.8c5.3,5.3,11,14.8,12.6,31.5c2.6,26.1-19.2,53.2-27.4,63.4
			c-0.1,0.1-0.2,0.4-0.3,0.5C218.7,7.2,233.7,3.3,246.6,3.3z"/>
	</g>
	<g id="XMLID_98_">
		<path id="XMLID_48_" fill="#6CC473" d="M177,38.7c0,0,10.7-28.4,19-29.9c8.2-1.5,12.9,8.1,8.3,13.1c-4.6,5-17.3,15.7-17.3,15.7
			L177,38.7z"/>
		<path id="XMLID_49_" d="M174.7,40.5l0.9-2.3c1.1-3,11.3-29.2,20.1-30.8c5.3-1,9,2,10.7,5c2,3.6,1.6,7.8-1,10.5
			c-4.6,5-16.9,15.4-17.4,15.8l-0.4,0.3L174.7,40.5z M197.6,10.2c-0.5,0-0.9,0-1.4,0.1c-5,0.9-12.7,16-16.9,26.6l7-0.8
			c2.1-1.8,12.7-10.9,16.8-15.3c1.7-1.8,1.9-4.6,0.5-7.1C202.7,12,200.6,10.2,197.6,10.2z"/>
	</g>
	<g id="XMLID_93_">
		<path id="XMLID_31_" fill="#6CC473" d="M263.4,40.4c0,0,8.9-23,17.1-24.7c11.1-2.3,12.2,6.6,7.8,11.8s-14.8,14.3-14.8,14.3
			L263.4,40.4z"/>
		<path id="XMLID_45_" d="M274,43.4l-12.7-1.7l0.7-1.8c0.9-2.4,9.5-23.8,18.2-25.6c7-1.5,9.9,1.3,11,3.2c1.9,3.1,1.2,7.7-1.7,11.1
			c-4.4,5.2-14.5,14.1-15,14.5L274,43.4z M265.5,39.2l7.6,1c2.1-1.9,10.4-9.3,14.1-13.7c2-2.4,2.6-5.6,1.4-7.6
			c-1.2-1.9-3.9-2.6-7.8-1.8C275.3,18.3,268.5,32.1,265.5,39.2z"/>
	</g>
	<g id="XMLID_91_">
		<path id="XMLID_32_" d="M164.9,8.4c-0.8,0-1.5-0.1-2.3-0.4c-2.5-1-3.6-3.2-3.7-3.5c-0.3-0.8,0-1.6,0.8-2c0.8-0.3,1.6,0,2,0.8
			c0,0,0.6,1.4,2,1.9c1.1,0.4,2.4,0.2,3.9-0.6c0.7-0.4,1.6-0.1,2,0.7c0.4,0.7,0.1,1.6-0.7,2C167.5,8,166.1,8.4,164.9,8.4z"/>
	</g>
	<g id="XMLID_88_">
		<g id="XMLID_44_">
			<path id="XMLID_90_" d="M156-3.1c0,0,3-4.5,0-4.5S153-3.1,156-3.1C156-3.1,153-3.1,156-3.1z"/>
		</g>
	</g>
	<g id="XMLID_85_">
		<path id="XMLID_20_" fill="#B5EFA5" d="M223.1,29.9c0,0,2.1-7.2-7.9-12.6"/>
		<path id="XMLID_21_" d="M223.1,31.4c-0.1,0-0.3,0-0.4-0.1c-0.8-0.2-1.2-1.1-1-1.8c0.1-0.3,1.6-6.2-7.1-10.9c-0.7-0.4-1-1.3-0.6-2
			c0.4-0.7,1.3-1,2-0.6c10.9,5.9,8.7,14,8.6,14.4C224.3,31,223.8,31.4,223.1,31.4z"/>
	</g>
	<g id="XMLID_82_">
		<path id="XMLID_18_" fill="#B5EFA5" d="M230.7,31.8c0,0,2.4-10.7-6.4-14.6"/>
		<path id="XMLID_19_" d="M230.7,33.3c-0.1,0-0.2,0-0.3,0c-0.8-0.2-1.3-1-1.1-1.8l0,0c0.1-0.4,2-9.5-5.6-12.9
			c-0.8-0.3-1.1-1.2-0.8-2s1.2-1.1,2-0.8c7.9,3.4,8.2,12.1,7.3,16.3C232,32.9,231.3,33.3,230.7,33.3z"/>
	</g>
	<g id="XMLID_79_">
		<path id="XMLID_6_" fill="#B5EFA5" d="M239.2,29.9c0,0,0.7-8.4-6-12"/>
		<path id="XMLID_9_" d="M239.2,31.4h-0.1c-0.8-0.1-1.4-0.8-1.4-1.6l0,0c0-0.3,0.5-7.5-5.2-10.6c-0.7-0.4-1-1.3-0.6-2
			c0.4-0.7,1.3-1,2-0.6c7.5,4.1,6.8,13.1,6.8,13.5C240.7,30.8,240,31.4,239.2,31.4z"/>
	</g>
</g>
</svg>
